<svg width="15" height="16" viewBox="0 0 15 16" fill="none" xmlns="http://www.w3.org/2000/svg">
<g clip-path="url(#clip0_530_8409)">
<path d="M10.625 0.5C10.4592 0.5 10.3003 0.565848 10.1831 0.683058C10.0658 0.800269 10 0.95924 10 1.125C10 2.96812 8.38563 3.625 6.875 3.625H2.5C1.83696 3.625 1.20107 3.88839 0.732233 4.35723C0.263392 4.82607 0 5.46196 0 6.125L0 7.375C0.0013651 7.74921 0.0871636 8.11829 0.251002 8.45473C0.41484 8.79117 0.652493 9.0863 0.94625 9.31812L3.17875 14.3006C3.33752 14.6576 3.59636 14.9608 3.92392 15.1737C4.25148 15.3865 4.63372 15.4999 5.02438 15.5C5.33519 15.4998 5.64103 15.4219 5.91404 15.2733C6.18705 15.1247 6.41857 14.9102 6.58753 14.6494C6.75649 14.3885 6.85751 14.0895 6.88141 13.7796C6.90531 13.4697 6.85133 13.1587 6.72438 12.875L5.34938 9.875H6.875C8.38563 9.875 10 10.5319 10 12.375C10 12.5408 10.0658 12.6997 10.1831 12.8169C10.3003 12.9342 10.4592 13 10.625 13C10.7908 13 10.9497 12.9342 11.0669 12.8169C11.1842 12.6997 11.25 12.5408 11.25 12.375V1.125C11.25 0.95924 11.1842 0.800269 11.0669 0.683058C10.9497 0.565848 10.7908 0.5 10.625 0.5V0.5ZM5.58563 13.3869C5.62702 13.4804 5.64443 13.5827 5.63628 13.6846C5.62812 13.7866 5.59466 13.8848 5.53892 13.9705C5.48318 14.0563 5.40693 14.1267 5.31708 14.1755C5.22723 14.2243 5.12662 14.2499 5.02438 14.25C4.87525 14.2499 4.72936 14.2065 4.60443 14.1251C4.4795 14.0436 4.38091 13.9277 4.32063 13.7913L2.56563 9.875H3.97438L5.58563 13.3869ZM10 9.625C9.10706 8.93699 8.00148 8.58321 6.875 8.625H2.5C2.16848 8.625 1.85054 8.4933 1.61612 8.25888C1.3817 8.02446 1.25 7.70652 1.25 7.375V6.125C1.25 5.79348 1.3817 5.47554 1.61612 5.24112C1.85054 5.0067 2.16848 4.875 2.5 4.875H6.875C8.0011 4.91769 9.10664 4.56502 10 3.87813V9.625ZM14.9375 10.1575C14.9008 10.231 14.8501 10.2965 14.7881 10.3504C14.7261 10.4042 14.654 10.4453 14.5761 10.4713C14.4983 10.4973 14.416 10.5077 14.3341 10.5019C14.2522 10.4961 14.1722 10.4742 14.0988 10.4375L12.8488 9.8125C12.7004 9.73841 12.5876 9.60841 12.535 9.45111C12.4825 9.29382 12.4947 9.12211 12.5688 8.97375C12.6428 8.82539 12.7728 8.71255 12.9301 8.66004C13.0874 8.60753 13.2591 8.61965 13.4075 8.69375L14.6575 9.31875C14.8051 9.3928 14.9174 9.52224 14.9698 9.67881C15.0223 9.83538 15.0107 10.0064 14.9375 10.1544V10.1575ZM12.5688 4.5325C12.532 4.45905 12.5101 4.37908 12.5043 4.29717C12.4985 4.21525 12.5089 4.133 12.5349 4.0551C12.5609 3.97721 12.602 3.9052 12.6559 3.8432C12.7097 3.7812 12.7753 3.73041 12.8488 3.69375L14.0988 3.06875C14.2471 2.99466 14.4188 2.98253 14.5761 3.03504C14.7334 3.08755 14.8634 3.20039 14.9375 3.34875C15.0116 3.49711 15.0237 3.66882 14.9712 3.82612C14.9187 3.98341 14.8059 4.11341 14.6575 4.1875L13.4075 4.8125C13.334 4.84922 13.2541 4.87111 13.1722 4.87691C13.0903 4.88271 13.008 4.87232 12.9301 4.84631C12.8522 4.82031 12.7802 4.77921 12.7182 4.72536C12.6562 4.67152 12.6054 4.60598 12.5688 4.5325ZM12.5 6.75C12.5 6.58424 12.5658 6.42527 12.6831 6.30806C12.8003 6.19085 12.9592 6.125 13.125 6.125H14.375C14.5408 6.125 14.6997 6.19085 14.8169 6.30806C14.9342 6.42527 15 6.58424 15 6.75C15 6.91576 14.9342 7.07473 14.8169 7.19194C14.6997 7.30915 14.5408 7.375 14.375 7.375H13.125C12.9592 7.375 12.8003 7.30915 12.6831 7.19194C12.5658 7.07473 12.5 6.91576 12.5 6.75Z" fill="#535364"/>
</g>
<defs>
<clipPath id="clip0_530_8409">
<rect width="15" height="15" fill="white" transform="translate(0 0.5)"/>
</clipPath>
</defs>
</svg>
