<svg width="15" height="15" viewBox="0 0 15 15" fill="none" xmlns="http://www.w3.org/2000/svg">
<g clip-path="url(#clip0_445_5338)">
<path d="M5.4375 11.2504H1.875C0.941875 11.2504 0 10.5416 0 8.95914V5.80914C0.013142 4.373 0.550892 2.99121 1.51199 1.92398C2.47308 0.856748 3.7912 0.177721 5.21812 0.0147633C6.02335 -0.0436902 6.83172 0.0718768 7.58832 0.353612C8.34491 0.635346 9.03198 1.07665 9.60286 1.64753C10.1737 2.2184 10.615 2.90548 10.8968 3.66207C11.1785 4.41867 11.2941 5.22704 11.2356 6.03226C11.0725 7.45978 10.3929 8.77833 9.32487 9.73948C8.25688 10.7006 6.87425 11.238 5.4375 11.2504ZM12.5 5.67539H12.4925C12.4925 5.82351 12.4925 5.97164 12.485 6.12039C12.2437 9.50039 9.15438 12.3616 5.6775 12.4885V12.4979C6.11538 13.2573 6.74523 13.8883 7.50389 14.3275C8.26256 14.7668 9.12337 14.9988 10 15.0004H13.125C13.6223 15.0004 14.0992 14.8028 14.4508 14.4512C14.8025 14.0996 15 13.6227 15 13.1254V10.0004C14.9991 9.12358 14.7676 8.26241 14.3288 7.5033C13.89 6.74418 13.2593 6.1138 12.5 5.67539Z" fill="white"/>
</g>
<defs>
<clipPath id="clip0_445_5338">
<rect width="15" height="15" fill="white"/>
</clipPath>
</defs>
</svg>
