<svg width="48" height="61" viewBox="0 0 48 61" fill="none" xmlns="http://www.w3.org/2000/svg">
<path d="M47.6872 26.6428L43.4809 22.3135C43.2815 22.1134 43.0178 22 42.7412 22H30V33H42.7284C43.0114 33 43.2815 32.8799 43.4809 32.6731L47.7001 28.1837C48.1053 27.7568 48.0988 27.0697 47.6872 26.6495V26.6428Z" fill="#0DA2FF"/>
<path d="M5.32359 32C5.0375 32 4.76441 32.1092 4.56285 32.2972L0.303991 36.3602C-0.105639 36.7483 -0.0991373 37.373 0.310493 37.755L4.56935 41.7089C4.77092 41.8908 5.0375 42 5.31709 42H16V32H5.32359Z" fill="#00DB62"/>
<path d="M40.9523 0H32.7763C21.7592 0 16 4.01553 16 13.1359V59.9494C16 60.5295 16.4692 61 17.0477 61H29.0546C29.6331 61 30.1023 60.5295 30.1023 59.9494V13.5548C30.1023 10.6286 31.69 9.20414 34.9424 9.20414H40.9523C41.5308 9.20414 42 8.73362 42 8.15353V1.05061C42 0.47052 41.5308 0 40.9523 0Z" fill="#0D0D0D"/>
</svg>
