<svg width="36" height="36" viewBox="0 0 36 36" fill="none" xmlns="http://www.w3.org/2000/svg">
<circle cx="18" cy="18" r="17.5" transform="rotate(-180 18 18)" stroke="#ADADB0"/>
<path d="M12 17.9994C12.0049 18.5256 12.2168 19.0285 12.59 19.3994L16.88 23.6994C17.0674 23.8857 17.3208 23.9902 17.585 23.9902C17.8492 23.9902 18.1026 23.8857 18.29 23.6994C18.3837 23.6065 18.4581 23.4959 18.5089 23.374C18.5597 23.2522 18.5858 23.1215 18.5858 22.9894C18.5858 22.8574 18.5597 22.7267 18.5089 22.6049C18.4581 22.483 18.3837 22.3724 18.29 22.2794L15 18.9994L25 18.9994C25.2652 18.9994 25.5196 18.8941 25.7071 18.7066C25.8946 18.519 26 18.2647 26 17.9994C26 17.7342 25.8946 17.4799 25.7071 17.2923C25.5196 17.1048 25.2652 16.9994 25 16.9994L15 16.9994L18.29 13.7095C18.4783 13.5225 18.5846 13.2684 18.5856 13.003C18.5865 12.7376 18.482 12.4828 18.295 12.2945C18.108 12.1061 17.8539 11.9998 17.5885 11.9989C17.3232 11.998 17.0683 12.1025 16.88 12.2895L12.59 16.5894C12.2144 16.9628 12.0022 17.4699 12 17.9994Z" fill="#ADADB6"/>
</svg>
