<svg width="29" height="37" viewBox="0 0 29 37" fill="none" xmlns="http://www.w3.org/2000/svg">
<path d="M28.8089 16.5324L26.2383 14.171C26.1165 14.0619 25.9553 14 25.7863 14H18V20H25.7784C25.9514 20 26.1165 19.9345 26.2383 19.8217L28.8167 17.373C29.0643 17.1401 29.0604 16.7653 28.8089 16.5361V16.5324Z" fill="#0DA2FF"/>
<path d="M3.32725 19C3.14844 19 2.97776 19.0764 2.85178 19.208L0.189995 22.0522C-0.0660246 22.3238 -0.0619608 22.7611 0.194058 23.0285L2.85585 25.7962C2.98182 25.9236 3.14844 26 3.32318 26H10V19H3.32725Z" fill="#00DB62"/>
<path d="M24.3956 0H19.6786C13.3226 0 10 2.43565 10 7.96767V36.3627C10 36.7146 10.2707 37 10.6044 37H17.5315C17.8653 37 18.136 36.7146 18.136 36.3627V8.22179C18.136 6.44685 19.0519 5.58284 20.9283 5.58284H24.3956C24.7293 5.58284 25 5.29744 25 4.94558V0.637257C25 0.285397 24.7293 0 24.3956 0Z" fill="white"/>
</svg>
