<svg width="36" height="36" viewBox="0 0 36 36" fill="none" xmlns="http://www.w3.org/2000/svg">
<circle cx="18" cy="18" r="17.5" stroke="#535364"/>
<path d="M24 18.0006C23.9951 17.4744 23.7832 16.9715 23.41 16.6006L19.12 12.3006C18.9326 12.1143 18.6792 12.0098 18.415 12.0098C18.1508 12.0098 17.8974 12.1143 17.71 12.3006C17.6163 12.3935 17.5419 12.5041 17.4911 12.626C17.4403 12.7478 17.4142 12.8785 17.4142 13.0106C17.4142 13.1426 17.4403 13.2733 17.4911 13.3951C17.5419 13.517 17.6163 13.6276 17.71 13.7206L21 17.0006H11C10.7348 17.0006 10.4804 17.1059 10.2929 17.2934C10.1054 17.481 10 17.7353 10 18.0006C10 18.2658 10.1054 18.5201 10.2929 18.7077C10.4804 18.8952 10.7348 19.0006 11 19.0006H21L17.71 22.2905C17.5217 22.4775 17.4154 22.7316 17.4144 22.997C17.4135 23.2624 17.518 23.5172 17.705 23.7055C17.892 23.8938 18.1461 24.0002 18.4115 24.0011C18.6768 24.002 18.9317 23.8975 19.12 23.7105L23.41 19.4105C23.7856 19.0372 23.9978 18.5301 24 18.0006Z" fill="#535364"/>
</svg>
