<svg width="130" height="48" viewBox="0 0 130 48" fill="none" xmlns="http://www.w3.org/2000/svg">
<path fill-rule="evenodd" clip-rule="evenodd" d="M62.0542 25.3737L62.3735 23.0471L62.4555 22.5897C62.6098 21.7285 62.7695 20.8376 62.941 19.9667C63.1054 19.1305 63.5111 17.2597 63.6136 16.5806C63.6528 16.3201 63.6937 16.0505 63.8017 15.797C64.1062 15.0841 64.7621 15.2827 65.2489 15.3938C66.4439 15.6667 66.3069 16.6904 66.2269 17.3902C66.161 17.9602 65.8451 19.291 65.7563 19.6702C65.7051 19.8913 65.6486 20.1332 65.5858 20.4578C65.5443 20.6737 65.5022 20.8891 65.4594 21.1043C65.5036 21.0064 65.5475 20.9092 65.5909 20.8122C65.8959 20.1323 66.1839 19.4897 66.5621 18.8635C66.9512 18.219 67.3141 17.7178 67.704 17.286C68.2123 16.7235 69.1345 16.0439 70.0616 15.9791C70.4757 15.9505 70.6618 15.9683 71.1097 16.0818C71.5536 16.1941 71.9182 16.439 72.1933 16.8095C72.3562 17.0287 72.4917 17.277 72.5955 17.5476C73.0961 18.85 73.2503 20.3246 73.0544 21.9302C73.0496 21.966 73.0449 22.0016 73.0395 22.0371C73.1626 21.6968 73.2771 21.3864 73.3621 21.2113L73.5228 20.8785C74.1365 19.6041 74.7163 18.4 76.2578 16.6623C77.0505 15.7686 77.808 15.2619 78.5735 15.1129C79.4933 14.9342 81.2236 15.8798 81.5599 16.7452C81.7266 17.1739 81.8047 17.6478 81.7986 18.194C81.7914 18.8275 81.7198 19.5059 81.573 20.3289C81.4699 20.9064 81.3405 21.4969 81.2158 22.0677C81.0993 22.6005 80.979 23.152 80.8806 23.6871C80.8143 24.0502 80.6701 24.7401 80.5173 25.4703C80.2444 26.7783 79.9043 28.4057 79.8912 28.7254C79.8617 29.4559 79.9208 29.8408 80.3238 29.9162C80.33 29.9173 80.3362 29.9178 80.3425 29.9177C80.8228 29.9177 83.1207 27.0228 83.6562 26.116C83.7639 25.9341 84.2936 25.1454 84.4932 24.836C84.5659 24.3397 84.6503 23.7595 84.6945 23.4395C84.8807 21.9001 85.5782 18.7247 86.2819 16.2128C86.8389 14.2266 87.3158 12.3792 87.6991 10.895C88.403 8.16814 88.7247 6.95105 88.9693 6.67845C89.2186 6.40044 89.8341 6.34689 90.37 6.55644C91.0551 6.82406 91.4275 7.42596 91.3913 8.20749C91.388 8.28404 91.3168 8.66675 90.8158 10.9213L90.7974 11.0048C90.4955 12.3621 88.8931 18.4877 88.1703 21.2435C88.748 20.1117 89.704 18.4136 90.9199 17.2352C91.3706 16.7981 91.907 16.4751 92.5146 16.2752C93.2965 16.0177 94.0432 16.0285 94.7333 16.3074C95.6657 16.6848 96.2871 17.3853 96.5804 18.3895C96.7041 18.8136 96.7807 19.2634 96.8142 19.7637C96.8644 20.5151 96.7843 21.2455 96.7094 21.7982C96.5622 22.8813 96.3152 23.9638 95.9749 25.0145C94.6215 29.197 91.8543 32.9127 88.0215 32.9127C86.2612 32.9127 85.7087 32.058 85.6001 31.7165C85.5734 31.6317 85.5563 31.5438 85.549 31.4547C85.5314 31.2485 85.6282 31.0376 85.801 30.9048C85.9747 30.7711 86.1871 30.7448 86.3542 30.8353C86.9391 31.1498 87.7929 30.8862 88.5206 30.4342C90.7105 29.0743 92.1739 26.0885 92.7486 24.4545C93.1016 23.4528 93.5383 21.8859 93.7431 20.8879C93.7649 20.7803 93.7969 20.6362 93.8337 20.4685C93.9925 19.7473 94.2585 18.5399 94.223 18.0766C94.2048 17.8441 93.9828 17.7253 93.7941 17.7309C93.7092 17.7336 93.5451 17.7716 93.4603 17.8117C93.1438 17.9607 91.5542 18.9838 89.6832 21.8193C88.8795 23.0371 88.0882 24.3226 87.7417 25.4724C87.5837 25.9964 87.1094 27.7101 86.9876 28.4045C86.876 29.0419 86.5816 29.3454 86.0429 29.7136C85.6892 29.9547 85.2862 29.995 84.9906 29.817C84.3719 29.4449 84.3737 28.0541 84.3794 27.4465C83.5721 28.6821 81.5292 31.6157 79.9999 31.9762C79.6406 32.0607 78.848 32.0377 78.1509 31.4153C77.5844 30.9093 76.9122 29.8394 76.9258 27.6145C76.9334 26.3851 77.1587 25.2427 77.4194 23.9198L77.5143 23.4361C77.627 22.8594 77.7985 22.1411 77.9643 21.4469C78.1231 20.7833 78.2868 20.097 78.3955 19.5485C78.4418 19.3132 78.4736 19.064 78.5045 18.8227L78.5181 18.7163C78.5403 18.5411 78.5422 17.8195 78.297 17.614C78.2135 17.5444 78.1043 17.5431 77.9609 17.6095C77.8523 17.6635 76.9857 18.4727 76.0931 19.9255C75.4169 21.0255 74.8788 21.9986 74.2865 23.448C73.7242 24.8236 73.4637 25.5812 73.1338 26.5403C73.0073 26.9098 72.879 27.2787 72.7492 27.6469C72.6143 28.0289 72.4843 28.4924 72.3585 28.9405C72.2626 29.2822 72.1719 29.6051 72.0796 29.8932C72.0518 29.9805 72.0258 30.0676 71.9996 30.155C71.9719 30.2476 71.9435 30.3399 71.9142 30.432C71.8856 30.5193 71.852 30.6046 71.8136 30.6875C71.5538 31.2525 70.8045 31.6388 70.2592 31.6726C69.8636 31.6969 69.1527 31.6879 68.852 31.3471C68.7268 31.2057 68.6432 31.0371 68.6036 30.8456C68.5794 30.7292 68.5528 30.593 68.5401 30.4499C68.532 30.3571 68.5406 30.2524 68.5651 30.1477C68.6411 29.8189 68.7404 29.3743 68.8447 28.909C68.9831 28.2886 69.1301 27.6314 69.241 27.1616C69.4499 26.2801 69.6411 25.3771 69.8259 24.5039C69.9335 23.9963 70.0411 23.4883 70.1529 22.9798C70.9786 19.2211 70.6269 17.8541 70.4956 17.7175C70.3412 17.5556 70.2417 17.5914 70.0102 17.6965C68.8279 18.2332 67.8103 20.6541 67.2025 22.1006L67.0539 22.4526C66.5117 23.7271 65.6689 25.9405 65.0082 28.0127C64.9364 28.2378 64.8428 28.5145 64.7477 28.7965C64.631 29.1411 64.5116 29.4945 64.4256 29.7723C64.2773 30.2508 63.9597 30.8293 63.4701 30.9203C63.2176 30.9673 62.9345 30.9833 62.7162 30.9223L62.6844 30.9131C62.1673 30.7699 61.8183 30.5176 61.6468 30.1633C61.4474 29.7522 61.5233 29.3061 61.5904 28.9126C61.6061 28.8219 61.6213 28.7321 61.6334 28.6436C61.6484 28.5303 61.6633 28.4166 61.678 28.3028C61.3517 28.8313 61.005 29.3752 60.705 29.8164C60.4896 30.1338 59.3628 31.7139 58.3235 31.7139C58.0022 31.713 57.6786 31.6512 57.3576 31.5312C56.7286 31.2948 56.2113 30.83 55.8188 30.1491C55.5427 29.6694 55.3479 29.1062 55.2231 28.4275C55.1098 27.8097 55.1452 26.5734 55.2098 25.703C55.2172 25.6032 55.2651 25.273 55.3159 24.9237C55.3242 24.8685 55.3326 24.8089 55.3413 24.749C54.5946 26.0735 53.0629 28.7774 51.5278 29.7045C51.1027 29.9616 50.6904 30.1063 50.2669 30.1475C49.8031 30.1921 49.3984 30.1045 49.0322 29.8787C48.7484 29.7034 48.3798 29.1843 48.2025 28.9349C47.9488 28.5779 47.7544 28.1525 47.6092 27.6347C47.4943 27.226 47.43 26.7902 47.4124 26.3024C47.3842 25.5198 47.4539 24.7169 47.6263 23.8473C47.8287 22.8269 48.1233 21.8131 48.5024 20.8337C48.9988 19.5509 49.564 18.4576 50.2309 17.492C50.5883 16.974 50.9333 16.5071 51.3585 16.18C52.0256 15.6664 52.7727 15.2779 53.5531 15.1511C53.8064 15.11 55.1454 14.927 56.4478 15.5064C57.1143 15.803 57.6066 16.45 57.9224 17.1671C58.0253 17.4012 58.1075 17.6758 58.0223 17.9386C57.9277 18.2305 57.6413 18.4218 57.3713 18.4445C57.1013 18.4671 56.8483 18.3511 56.6274 18.2019C56.4065 18.0526 56.2066 17.8678 55.9781 17.7319C55.1526 17.2409 54.1065 17.4741 53.3958 18.2773C52.8079 18.9418 52.3022 19.7087 51.8932 20.5548C51.0661 22.2664 50.4719 24.0298 50.1273 25.7959C50.0168 26.3629 49.964 26.8593 49.956 27.4031L49.9613 27.4853C49.9668 27.5782 49.974 27.7036 49.9924 27.8266C50.0144 27.9731 50.0481 28.1097 50.0926 28.2335C50.1648 28.4331 50.2738 28.4915 50.4604 28.4273C50.5447 28.3978 50.6275 28.3438 50.7207 28.2571C51.0915 27.9125 51.4134 27.5692 51.7054 27.2064C52.1908 26.6031 52.6357 25.9342 53.0146 25.355C53.4629 24.6698 53.8839 23.9628 54.3028 23.2569C54.7763 22.4593 55.2564 21.461 55.868 20.6685C56.1507 20.3018 56.4616 19.9793 56.8133 19.7406C57.4029 19.3406 58.2172 19.2816 58.6343 19.8109C59.0285 20.3104 58.9391 21.1043 58.829 21.8023C58.4931 23.9333 58.0714 26.0901 58.1346 28.2187L58.1367 28.3188C58.1536 29.4056 58.3123 29.6798 58.4419 29.7185C58.844 29.838 59.2316 29.4346 59.4279 29.1837C60.5267 27.782 61.1659 26.9009 62.0475 25.3854L62.0542 25.3737ZM46.0647 14.9705C46.7132 15.4298 46.6899 16.1945 46.6107 16.9389C46.4753 18.2053 44.3129 30.4703 41.5087 37.1145C40.8363 38.7077 38.9308 42 35.1168 42C33.0595 42 31.3926 40.6908 31.0297 40.0342C30.6091 39.2731 30.6021 38.7025 31.0021 38.4912C31.4171 38.2722 31.8833 38.6778 32.2944 38.8943C32.8697 39.198 33.5482 39.3517 34.2936 39.428C36.6722 39.6711 38.6062 37.0598 40.5087 29.6323C40.8825 28.1735 41.3702 26.0533 41.6766 24.7108C42.0969 22.8722 42.6252 20.6926 43.1919 18.4725C43.2439 18.2683 43.2935 18.0126 43.3456 17.7421C43.5531 16.6677 43.8117 15.3303 44.6099 14.8585C45.0457 14.6008 45.6034 14.6436 46.0647 14.9705ZM48.3982 9.06256C48.4562 9.59399 48.3787 10.0573 48.1684 10.439C48.0168 10.7143 47.8275 10.9306 47.606 11.0815C47.1918 11.3642 46.7295 11.503 46.1516 11.5188C46.131 11.5195 46.1103 11.5199 46.0897 11.5199C45.8068 11.5199 45.5039 11.4555 45.1658 11.3238C44.9504 11.2399 44.6772 11.022 44.5999 10.462C44.4836 9.62506 44.6154 8.93964 44.9912 8.42573C45.224 8.10701 45.5169 7.88215 45.8864 7.73785C46.1852 7.62191 46.4893 7.56946 46.7902 7.58411C47.1446 7.60098 47.5069 7.73695 47.8662 7.98836C48.164 8.19635 48.3427 8.55788 48.3982 9.06256ZM105.167 21.7952L106.126 19.6541C106.354 19.1742 106.979 18.3623 107.966 18.4498C108.959 18.5379 108.97 19.3514 108.972 19.6446C108.98 20.8734 107.622 23.6489 107.286 25.4755C107.151 26.2073 106.332 29.0595 107.779 29.7708C108.238 29.9964 108.709 29.9628 109.167 29.6634C109.379 29.5257 109.564 29.3447 109.773 29.2013C109.981 29.0582 110.25 28.9391 110.487 28.9618C110.83 28.9942 111.068 29.2292 110.982 29.6799C110.895 30.1305 110.444 30.6219 110.106 30.926C109.098 31.8302 107.696 32.2383 106.496 31.8804C105.653 31.6288 104.953 30.9515 104.617 30.14C104.252 29.2556 104.285 28.3615 104.474 27.2923C103.513 29.4053 102.488 30.8276 101.553 31.3341C100.68 31.8064 99.7309 31.8966 98.9488 31.5822C97.876 31.1509 97.188 30.0081 97.1077 28.5258C97.0601 27.6405 97.1128 26.7239 97.2689 25.7229C97.4544 24.5326 97.6566 23.7342 98.0294 22.5723C98.862 20.0923 100.106 17.8106 102.496 16.6835C103.832 16.0537 105.329 15.8846 106.694 16.2097C106.938 16.2675 107.186 16.3459 107.365 16.523C107.544 16.7002 107.634 17.0011 107.515 17.2483C107.406 17.4725 107.168 17.5884 106.95 17.6852C106.278 17.9837 104.294 18.2002 102.46 20.4775C102.039 20.9995 101.723 21.6041 101.43 22.2098C100.762 23.5933 98.8862 27.9275 99.9643 30.183C100.035 30.3302 100.155 30.3991 100.302 30.4089C100.897 30.4486 102.034 28.321 102.49 27.4116L102.646 27.103C103.105 26.1983 104.557 23.2307 105.167 21.7952Z" fill="#117058"/>
<path fill-rule="evenodd" clip-rule="evenodd" d="M30.591 33.1576C30.6119 33.0466 30.653 32.9355 30.7769 32.9355C30.9218 32.9355 30.9836 33.0688 30.9836 33.1798C31.0662 33.8904 31.7067 34.712 32.6158 35.0673C33.0703 35.2448 33.7316 35.1562 33.9795 35.0893C34.2481 35.0007 34.4342 35.1337 34.496 35.2894C34.5375 35.4004 34.558 35.6003 34.3101 35.8445C34.1655 35.9775 33.4217 36.5551 32.2648 36.111C31.0251 35.6003 30.4053 34.1124 30.591 33.1576Z" fill="#74C04C"/>
<path fill-rule="evenodd" clip-rule="evenodd" d="M29.3307 22.4107C29.8473 22.0776 31.4382 20.9895 33.1945 20.9895C35.054 20.9895 36.3144 21.6779 36.2937 22.6771C36.273 23.7208 34.3515 24.3204 32.7606 24.3426C28.6283 24.387 25.2191 22.988 23.8348 17.4809C23.7108 16.9924 23.6282 16.8369 23.3802 16.8369C23.0703 16.8369 22.9877 17.2366 22.9877 17.6586C22.905 22.0998 26.6654 26.9629 32.3267 26.8963C37.4301 26.8296 38.1532 24.1871 38.1739 23.0324C38.1943 21.8777 37.1821 19.8347 33.3389 19.8347C31.2317 19.8347 29.1861 21.1005 28.7109 21.8777C28.401 22.3662 28.8555 22.7215 29.3307 22.4107Z" fill="#FAC53C"/>
<path fill-rule="evenodd" clip-rule="evenodd" d="M31.4383 29.3382C31.3761 29.4268 31.335 29.4714 31.335 29.5825C31.335 29.7379 31.4794 29.8489 31.624 29.8267C31.6656 29.8267 31.7069 29.8045 31.7482 29.7823C32.3887 29.2716 32.8846 29.1827 33.7317 29.2716C34.4753 29.3604 34.9507 29.8489 34.8474 30.293C34.7232 30.7816 33.9383 31.1813 32.9879 31.1369C31.3969 31.0702 28.9589 30.6261 28.1735 26.9622C28.1115 26.6734 28.0291 26.54 27.8845 26.54C27.6983 26.5624 27.6779 26.7401 27.657 27.2062C27.6159 29.5602 29.2688 32.3804 32.43 32.7577C34.5786 33.0244 35.7563 31.7809 35.9216 30.6928C36.0249 29.9378 35.5706 28.7164 33.9383 28.4944C32.4505 28.3165 31.624 29.1384 31.4383 29.3382Z" fill="#B1D461"/>
<path fill-rule="evenodd" clip-rule="evenodd" d="M18.9584 6.2887C18.8758 6.13326 18.7105 6 18.5245 6C18.2559 6 17.946 6.24428 18.008 6.53294C18.7725 10.4856 22.2643 18.08 31.7272 18.2577C38.7728 18.391 40.9217 14.5049 40.9836 12.1733C41.0456 10.2858 40.0952 6.48857 33.5661 6.37744C28.6487 6.2886 25.2395 9.41966 24.3304 10.4856C24.2271 10.5966 24.1651 10.7965 24.1651 10.9519C24.1651 11.3294 24.4751 11.5958 24.785 11.5515C24.9709 11.5293 25.1156 11.4182 25.2602 11.3072C28.0908 8.90896 31.1074 8.37597 33.1942 8.42039C35.6736 8.46481 38.215 9.70831 38.153 11.6403C38.091 13.5722 35.6943 14.8824 32.3058 14.8157C25.5081 14.6826 22.0577 12.2177 18.9584 6.2887Z" fill="#F5804B"/>
<path fill-rule="evenodd" clip-rule="evenodd" d="M37.2027 35.8003L37.1407 35.0009L36.8308 35.8003H36.7275L36.4176 35.0231L36.3556 35.8227H36.211L36.3143 34.7566H36.4589L36.8103 35.6006L37.1407 34.7566H37.2854L37.368 35.8227H37.2027V35.8003ZM36.1077 34.7344V34.8676H35.7564V35.8003H35.6118V34.8676H35.2607V34.7344L36.1077 34.7344Z" fill="#117159"/>
</svg>
